<?xml version="1.0" encoding="utf-8"?>
<!-- Generator: Adobe Illustrator 27.2.0, SVG Export Plug-In . SVG Version: 6.00 Build 0)  -->
<svg version="1.1" id="Vrstva_1" xmlns="http://www.w3.org/2000/svg" xmlns:xlink="http://www.w3.org/1999/xlink" x="0px" y="0px"
	 viewBox="0 0 595.28 214.86" style="enable-background:new 0 0 595.28 214.86;" xml:space="preserve">
<style type="text/css">
	.st0{fill:none;}
	.st1{fill:#008296;}
</style>
<rect x="0.71" y="0.41" class="st0" width="595.28" height="214.86"/>
<g>
	<rect x="483.81" y="72.73" class="st1" width="21.53" height="70.22"/>
	<polygon class="st1" points="469.68,73.12 440.39,73.12 413.23,98.92 391.96,98.92 391.96,72.73 370.43,72.73 370.43,142.95 
		391.96,142.95 391.96,116.38 412.65,116.38 443.69,143.34 474.14,143.34 431.66,107.46 	"/>
	<path class="st1" d="M301.17,87.67h39.25c0.77,0,1.47,0.02,2.13,0.04l17.39-14.26c-3.7-0.98-8.49-1.5-14.67-1.5h-45.47
		c-27.16,0-28.32,9.79-28.32,22.5c0,17.27,3.69,21.14,36.08,21.14c27.74,0,30.26,0.39,30.26,6.5c0,5.43-4.66,5.92-9.22,5.92h-48.25
		l-17.76,14.56c3.82,0.82,8.51,1.15,14.23,1.15h48.09c28.61,0,35.01-3.1,35.01-22.02c0-20.46-7.76-22.5-41.22-22.4
		c-23.08,0.1-25.7-0.1-25.7-6.21C293.03,89.32,296.32,87.67,301.17,87.67z"/>
	<path class="st1" d="M237.65,113.27c0,8.92-3.2,12.41-12.03,12.41h-21.33c-8.83,0-12.03-3.49-12.03-12.41V80.08l-21.53,17.65v20.2
		c0,17.46,9.02,25.8,28.81,25.8h30.84c19.78,0,28.8-8.34,28.8-25.8V78.52l-21.53,17.65V113.27z"/>
	<polygon class="st1" points="112.66,72.73 91.36,90.19 129.43,90.19 129.43,142.95 150.96,142.95 150.96,90.19 159.78,90.19 
		181.07,72.73 	"/>
</g>
</svg>
