<?xml version="1.0" encoding="utf-8"?>
<!-- Generator: Adobe Illustrator 24.0.1, SVG Export Plug-In . SVG Version: 6.00 Build 0)  -->
<svg version="1.1" id="Vrstva_1" xmlns="http://www.w3.org/2000/svg" xmlns:xlink="http://www.w3.org/1999/xlink" x="0px" y="0px"
	 viewBox="0 0 425.2 214.9" style="enable-background:new 0 0 425.2 214.9;" xml:space="preserve">
<style type="text/css">
	.st0{fill:none;}
	.st1{fill:#008296;}
</style>
<rect x="-84.3" y="0.4" class="st0" width="595.3" height="214.9"/>
<g>
	<rect x="398.8" y="72.7" class="st1" width="21.5" height="70.2"/>
	<polygon class="st1" points="384.6,73.1 355.3,73.1 328.2,98.9 306.9,98.9 306.9,72.7 285.4,72.7 285.4,142.9 306.9,142.9 
		306.9,116.4 327.6,116.4 358.6,143.3 389.1,143.3 346.6,107.5 	"/>
	<path class="st1" d="M216.1,87.7h39.3c0.8,0,1.5,0,2.1,0l17.4-14.3c-3.7-1-8.5-1.5-14.7-1.5h-45.5c-27.2,0-28.3,9.8-28.3,22.5
		c0,17.3,3.7,21.1,36.1,21.1c27.7,0,30.3,0.4,30.3,6.5c0,5.4-4.7,5.9-9.2,5.9h-48.3l-17.8,14.6c3.8,0.8,8.5,1.1,14.2,1.1h48.1
		c28.6,0,35-3.1,35-22c0-20.5-7.8-22.5-41.2-22.4c-23.1,0.1-25.7-0.1-25.7-6.2C208,89.3,211.3,87.7,216.1,87.7z"/>
	<path class="st1" d="M152.6,113.3c0,8.9-3.2,12.4-12,12.4h-21.3c-8.8,0-12-3.5-12-12.4V80.1L85.7,97.7v20.2
		c0,17.5,9,25.8,28.8,25.8h30.8c19.8,0,28.8-8.3,28.8-25.8V78.5l-21.5,17.7V113.3z"/>
	<polygon class="st1" points="27.6,72.7 6.3,90.2 44.4,90.2 44.4,142.9 65.9,142.9 65.9,90.2 74.7,90.2 96,72.7 	"/>
</g>
</svg>
